<?xml version="1.0" encoding="utf-8"?>
<!-- Generator: Adobe Illustrator 16.0.0, SVG Export Plug-In . SVG Version: 6.00 Build 0)  -->
<!DOCTYPE svg PUBLIC "-//W3C//DTD SVG 1.1//EN" "http://www.w3.org/Graphics/SVG/1.1/DTD/svg11.dtd">
<svg version="1.1" id="Layer_1" xmlns="http://www.w3.org/2000/svg" xmlns:xlink="http://www.w3.org/1999/xlink" x="0px" y="0px"
	 width="25px" height="25px" viewBox="0 0 512 512" enable-background="new 0 0 512 512" xml:space="preserve">
<circle cx="224.28" cy="122.335" r="99.792"/>
<path d="M290.18,372.258c0-33.578,27.221-60.801,60.799-60.801h41.115c-14.369-46.129-40.139-84.935-72.908-110.761
	c-22.576,27.31-56.707,44.716-94.906,44.716c-38.198,0-72.333-17.406-94.908-44.716C78.028,241.16,43.821,313.459,43.821,395.931
	c0,0,74.015,26.611,178.796,26.611c24.189,0,46.912-1.42,67.563-3.602V372.258z"/>
<path d="M415.059,323.457h-59.76c-29.336,0-53.119,23.783-53.119,53.121v59.76c0,29.336,23.783,53.119,53.119,53.119h59.76
	c29.338,0,53.121-23.783,53.121-53.119v-59.76C468.18,347.24,444.397,323.457,415.059,323.457z M427.427,425.799
	c6.248,6.249,6.248,16.379,0,22.627s-16.379,6.249-22.628,0L385,428.627l-19.799,19.799c-6.249,6.249-16.38,6.248-22.628,0
	s-6.248-16.378,0-22.627L362.372,406l-19.799-19.799c-6.248-6.249-6.248-16.379,0-22.627c6.249-6.249,16.379-6.249,22.628,0
	L385,383.373l19.799-19.799c6.249-6.249,16.38-6.248,22.628,0s6.248,16.378,0,22.627L407.628,406L427.427,425.799z"/>
</svg>
